<?xml version="1.0" encoding="UTF-8" standalone="no"?>
<!-- Generator: Adobe Illustrator 16.0.0, SVG Export Plug-In . SVG Version: 6.00 Build 0)  -->

<svg
   xmlns:dc="http://purl.org/dc/elements/1.1/"
   xmlns:cc="http://creativecommons.org/ns#"
   xmlns:rdf="http://www.w3.org/1999/02/22-rdf-syntax-ns#"
   xmlns:svg="http://www.w3.org/2000/svg"
   xmlns="http://www.w3.org/2000/svg"
   xmlns:sodipodi="http://sodipodi.sourceforge.net/DTD/sodipodi-0.dtd"
   xmlns:inkscape="http://www.inkscape.org/namespaces/inkscape"
   version="1.1"
   id="Capa_1"
   x="0px"
   y="0px"
   width="320"
   height="180"
   viewBox="0 0 320.00001 180.00001"
   xml:space="preserve"
   sodipodi:docname="controls.svg"
   shape-rendering="crispEdges"
   inkscape:version="0.92.2 (5c3e80d, 2017-08-06)"><metadata
     id="metadata4648"><rdf:RDF><cc:Work
         rdf:about=""><dc:format>image/svg+xml</dc:format><dc:type
           rdf:resource="http://purl.org/dc/dcmitype/StillImage" /><dc:title></dc:title></cc:Work></rdf:RDF></metadata><defs
     id="defs4646" /><sodipodi:namedview
     pagecolor="#ffffff"
     bordercolor="#666666"
     borderopacity="1"
     objecttolerance="10"
     gridtolerance="10"
     guidetolerance="10"
     inkscape:pageopacity="0"
     inkscape:pageshadow="2"
     inkscape:window-width="1858"
     inkscape:window-height="1057"
     id="namedview4644"
     showgrid="false"
     inkscape:snap-global="true"
     inkscape:object-paths="true"
     inkscape:zoom="12.275185"
     inkscape:cx="43.419865"
     inkscape:cy="104.099"
     inkscape:window-x="-8"
     inkscape:window-y="-8"
     inkscape:window-maximized="1"
     inkscape:current-layer="layer1" /><g
     id="g4613"
     transform="translate(0,-400.03198)" /><g
     id="g4615"
     transform="translate(0,-400.03198)" /><g
     id="g4617"
     transform="translate(0,-400.03198)" /><g
     id="g4619"
     transform="translate(0,-400.03198)" /><g
     id="g4621"
     transform="translate(0,-400.03198)" /><g
     id="g4623"
     transform="translate(0,-400.03198)" /><g
     id="g4625"
     transform="translate(0,-400.03198)" /><g
     id="g4627"
     transform="translate(0,-400.03198)" /><g
     id="g4629"
     transform="translate(0,-400.03198)" /><g
     id="g4631"
     transform="translate(0,-400.03198)" /><g
     id="g4633"
     transform="translate(0,-400.03198)" /><g
     id="g4635"
     transform="translate(0,-400.03198)" /><g
     id="g4637"
     transform="translate(0,-400.03198)" /><g
     id="g4639"
     transform="translate(0,-400.03198)" /><g
     id="g4641"
     transform="translate(0,-400.03198)" /><g
     inkscape:groupmode="layer"
     id="layer2"
     inkscape:label="Layer 2"
     style="display:inline"
     sodipodi:insensitive="true"><rect
       style="fill:#000000;fill-opacity:1;stroke:none;stroke-width:1;stroke-opacity:1"
       id="rect4690"
       width="320"
       height="180"
       x="0"
       y="3.9306641e-008" /></g><g
     inkscape:groupmode="layer"
     id="layer1"
     inkscape:label="Layer 1"
     style="display:inline"><path
       d="m 136.82752,53.524844 c -5.14527,0 -9.33077,4.185498 -9.33077,9.330768 0,5.145269 4.1855,9.332831 9.33077,9.332831 5.14561,0 9.33077,-4.185498 9.33077,-9.332831 0,-5.145614 -4.1855,-9.330768 -9.33077,-9.330768 z"
       id="path4579"
       inkscape:connector-curvature="0"
       style="fill:none;stroke:#00ffce;stroke-width:1;stroke-miterlimit:4;stroke-dasharray:none;stroke-opacity:1" /><circle
       cx="225.50937"
       cy="63.194454"
       r="6.4569573"
       id="circle4581"
       style="fill:none;stroke:#00ffce;stroke-width:1;stroke-miterlimit:4;stroke-dasharray:none;stroke-opacity:1" /><path
       d="m 136.82752,48.078571 c -8.14946,0 -14.77911,6.627583 -14.77911,14.777041 0,8.149457 6.62965,14.779104 14.77911,14.779104 8.14774,0 14.77739,-6.629647 14.77739,-14.779104 0,-8.149458 -6.62793,-14.777041 -14.77739,-14.777041 z m 0,26.213113 c -6.30525,0 -11.43607,-5.132541 -11.43607,-11.438136 0,-6.305596 5.13082,-11.436073 11.43607,-11.436073 6.3056,0 11.43607,5.130822 11.43607,11.436073 0,6.305251 -5.12875,11.438136 -11.43607,11.438136 z"
       id="path4583"
       inkscape:connector-curvature="0"
       style="fill:none;stroke:#00ffce;stroke-width:1;stroke-miterlimit:4;stroke-dasharray:none;stroke-opacity:1" /><circle
       cx="173.59467"
       cy="63.194454"
       r="3.3726163"
       id="circle4585"
       style="fill:none;stroke:#00ffce;stroke-width:1;stroke-miterlimit:4;stroke-dasharray:none;stroke-opacity:1" /><path
       d="m 261.91636,42.430024 c -5.59179,-3.574891 -1.55765,-5.617243 -7.34552,-10.042512 -5.78753,-4.425269 -29.27613,-11.915959 -33.36255,-8.511694 -4.08643,3.404265 -8.68026,4.084361 -8.68026,4.084361 h -24.80682 -0.042 -24.80889 c 0,0 -4.59589,-0.680096 -8.68025,-4.084361 -4.08436,-3.404265 -27.57538,4.084361 -33.36256,8.511694 -5.78752,4.425269 -1.75373,6.467621 -7.34552,10.042512 -5.59178,3.574891 -20.230191,52.937416 -20.230191,52.937416 0,0 -19.063676,54.98011 14.979311,61.61802 0,0 8.34142,-5.27565 15.48879,-13.78734 7.14978,-8.5117 21.10569,-20.59622 28.59638,-20.76684 7.3266,-0.16616 34.19022,-0.007 35.36087,0 v 0 h 0.021 0.0213 v 0 c 1.17065,-0.007 28.03427,-0.16616 35.36087,0 7.48863,0.17062 21.44694,12.25514 28.59637,20.76684 7.14944,8.51169 15.48844,13.78734 15.48844,13.78734 34.043,-6.63791 14.97932,-61.61802 14.97932,-61.61802 0,0 -14.63634,-49.362525 -20.22813,-52.937416 z m -23.29527,-0.903355 c 4.72249,0 8.56226,3.842182 8.56226,8.562262 0,4.720081 -3.84218,8.562263 -8.56226,8.562263 -4.72008,0 -8.56226,-3.840118 -8.56226,-8.562263 0,-4.722144 3.83977,-8.562262 8.56226,-8.562262 z m -13.11172,13.105525 c 4.72215,0 8.56227,3.840117 8.56227,8.562262 0,4.722144 -3.84219,8.562262 -8.56227,8.562262 -4.72042,0 -8.5626,-3.842182 -8.5626,-8.562262 0,-4.72008 3.84011,-8.562262 8.5626,-8.562262 z m -23.31866,3.08434 c 3.02104,0 5.47792,2.458942 5.47792,5.479986 0,3.021044 -2.45688,5.477921 -5.47792,5.477921 -3.02104,0 -5.47827,-2.456877 -5.47827,-5.477921 0,-3.021044 2.45723,-5.479986 5.47827,-5.479986 z m -82.24588,5.137014 c 0,-9.309439 7.57497,-16.882346 16.88476,-16.882346 9.30943,0 16.88234,7.572907 16.88234,16.882346 0,9.309783 -7.57291,16.884754 -16.88234,16.884754 -9.30979,-3.44e-4 -16.88476,-7.574971 -16.88476,-16.884754 z m 56.1886,36.627837 c 0,0.581025 -0.47163,1.052655 -1.05265,1.052655 h -7.72221 v 7.72461 c 0,0.58068 -0.47163,1.05265 -1.05265,1.05265 h -8.33694 c -0.58102,0 -1.05265,-0.47163 -1.05265,-1.05265 v -7.72461 h -7.72221 c -0.58102,0 -1.05265,-0.47129 -1.05265,-1.052655 v -8.336939 c 0,-0.581023 0.47163,-1.052309 1.05265,-1.052309 h 7.72221 v -7.724612 c 0,-0.581023 0.47163,-1.052653 1.05265,-1.052653 h 8.33694 c 0.58102,0 1.05265,0.47163 1.05265,1.052653 v 7.724612 h 7.72221 c 0.58102,0 1.05265,0.471286 1.05265,1.052309 z m -2.53875,-30.808664 c -3.02104,0 -5.47792,-2.456877 -5.47792,-5.477921 0,-3.021044 2.45688,-5.48033 5.47792,-5.48033 3.02104,0 5.47792,2.458942 5.47792,5.48033 0,3.021388 -2.45928,5.477921 -5.47792,5.477921 z m 40.0008,41.874249 c -9.30978,0 -16.88269,-7.57532 -16.88269,-16.884758 0,-9.309439 7.57291,-16.882346 16.88269,-16.882346 9.30944,0 16.88234,7.572907 16.88234,16.882346 0,9.309788 -7.5729,16.884758 -16.88234,16.884758 z m 25.02561,-24.996031 c -4.72249,0 -8.56226,-3.840118 -8.56226,-8.562262 0,-4.722145 3.84218,-8.562263 8.56226,-8.562263 4.72008,0 8.56226,3.842182 8.56226,8.562263 0,4.72008 -3.84012,8.562262 -8.56226,8.562262 z m 14.1224,-13.792157 c -4.72214,0 -8.56226,-3.842182 -8.56226,-8.562262 0,-4.72008 3.84012,-8.562262 8.56226,-8.562262 4.72249,0 8.56261,3.840118 8.56261,8.562262 -3.5e-4,4.722488 -3.84047,8.562262 -8.56261,8.562262 z"
       id="path4589"
       inkscape:connector-curvature="0"
       style="fill:none;stroke:#00ffce;stroke-width:1;stroke-miterlimit:4;stroke-dasharray:none;stroke-opacity:1"
       sodipodi:nodetypes="cccccccscscccccccccccccccsssssssssssssssssscssscsssscsssscsssscssssssssssssssssssssscs" /><circle
       cx="238.62108"
       cy="76.988335"
       r="6.4569573"
       id="circle4593"
       style="fill:none;stroke:#00ffce;stroke-width:1;stroke-miterlimit:4;stroke-dasharray:none;stroke-opacity:1" /><circle
       cx="252.74348"
       cy="63.194454"
       r="6.4569573"
       id="circle4597"
       style="fill:none;stroke:#00ffce;stroke-width:1;stroke-miterlimit:4;stroke-dasharray:none;stroke-opacity:1" /><circle
       cx="202.1907"
       cy="63.194454"
       r="3.3726163"
       id="circle4599"
       style="fill:none;stroke:#00ffce;stroke-width:1;stroke-miterlimit:4;stroke-dasharray:none;stroke-opacity:1" /><circle
       cx="238.62108"
       cy="50.088928"
       r="6.4569573"
       id="circle4601"
       style="fill:none;stroke:#00ffce;stroke-width:1;stroke-miterlimit:4;stroke-dasharray:none;stroke-opacity:1" /><path
       d="m 213.59548,78.887579 c -8.14774,0 -14.77739,6.627584 -14.77739,14.777041 0,8.14946 6.62965,14.7791 14.77739,14.7791 8.14739,0 14.77704,-6.6293 14.77704,-14.7791 0,-8.149801 -6.62999,-14.777041 -14.77704,-14.777041 z m 0,26.212771 c -6.3056,0 -11.43607,-5.132543 -11.43607,-11.438138 0,-6.305251 5.13047,-11.435729 11.43607,-11.435729 6.30525,0 11.43573,5.130822 11.43573,11.435729 0,6.305595 -5.13048,11.438138 -11.43573,11.438138 z"
       id="path4603"
       inkscape:connector-curvature="0"
       style="fill:none;stroke:#00ffce;stroke-width:1;stroke-miterlimit:4;stroke-dasharray:none;stroke-opacity:1" /><path
       d="m 213.59548,84.333852 c -5.14562,0 -9.33077,4.185498 -9.33077,9.330768 0,5.145269 4.18515,9.33283 9.33077,9.33283 5.14527,0 9.33042,-4.185497 9.33042,-9.33283 -0.002,-5.145614 -4.18515,-9.330768 -9.33042,-9.330768 z"
       id="path4605"
       inkscape:connector-curvature="0"
       style="fill:none;stroke:#00ffce;stroke-width:1;stroke-miterlimit:4;stroke-dasharray:none;stroke-opacity:1" /><path
       d="m 165.25327,91.144446 v -7.724268 h -6.23164 v 7.724268 c 0,0.581023 -0.47163,1.052996 -1.05265,1.052996 h -7.7222 v 6.231291 h 7.7222 c 0.58102,0 1.05265,0.47163 1.05265,1.052996 V 107.206 h 6.23164 v -7.724271 c 0,-0.581022 0.47163,-1.052996 1.05265,-1.052996 h 7.72221 v -6.231291 h -7.72221 c -0.58102,-3.44e-4 -1.05265,-0.471973 -1.05265,-1.052996 z"
       id="path4607"
       inkscape:connector-curvature="0"
       style="fill:none;stroke:#00ffce;stroke-width:1;stroke-miterlimit:4;stroke-dasharray:none;stroke-opacity:1" /><g
       id="g4803"
       transform="translate(27.698156)"><path
         inkscape:connector-curvature="0"
         id="path4716"
         d="M 109.0868,80.201078 V 136.90083"
         style="fill:none;stroke:#ffffff;stroke-width:1px;stroke-linecap:round;stroke-linejoin:miter;stroke-opacity:1" /><path
         sodipodi:nodetypes="cc"
         style="fill:none;stroke:#ffffff;stroke-width:1px;stroke-linecap:round;stroke-linejoin:miter;stroke-opacity:1"
         d="m 134.41752,109.7968 v 46.38853"
         id="path4718"
         inkscape:connector-curvature="0" /><path
         sodipodi:nodetypes="cc"
         inkscape:connector-curvature="0"
         id="path4722"
         d="m 109.0868,136.90083 h 25.33072"
         style="fill:#ffffff;stroke:#ffffff;stroke-width:1px;stroke-linecap:round;stroke-linejoin:miter;stroke-opacity:1" /></g></g><g
     inkscape:groupmode="layer"
     id="layer3"
     inkscape:label="Layer 3"><flowRoot
       xml:space="preserve"
       id="flowRoot4724"
       style="font-style:normal;font-variant:normal;font-weight:normal;font-stretch:normal;font-size:40px;line-height:1.25;font-family:monospace;-inkscape-font-specification:monospace;letter-spacing:0px;word-spacing:0px;fill:#000000;fill-opacity:1;stroke:none"><flowRegion
         id="flowRegion4726"
         style="font-style:normal;font-variant:normal;font-weight:normal;font-stretch:normal;font-family:monospace;-inkscape-font-specification:monospace"><rect
           id="rect4728"
           width="77.420547"
           height="45.853237"
           x="4.3779473"
           y="66.864624"
           style="font-style:normal;font-variant:normal;font-weight:normal;font-stretch:normal;font-family:monospace;-inkscape-font-specification:monospace" /></flowRegion><flowPara
         id="flowPara4730" /></flowRoot><g
       id="g4783"><text
         id="text4734"
         y="86.680595"
         x="24.418629"
         style="font-style:normal;font-weight:normal;font-size:11.23737717px;line-height:1.25;font-family:sans-serif;letter-spacing:0px;word-spacing:0px;fill:#ffffff;fill-opacity:1;stroke:none;stroke-width:1"
         xml:space="preserve"><tspan
           style="font-style:normal;font-variant:normal;font-weight:bold;font-stretch:normal;font-family:sans-serif;-inkscape-font-specification:'sans-serif Bold';stroke-width:1"
           y="86.680595"
           x="24.418629"
           id="tspan4732"
           sodipodi:role="line">A</tspan></text>
<rect
         ry="5"
         rx="5"
         y="74.669556"
         x="20.852083"
         height="15.829988"
         width="15.829988"
         id="rect4736"
         style="fill:none;fill-opacity:1;stroke:#00ffce;stroke-width:1;stroke-linecap:round;stroke-miterlimit:4;stroke-dasharray:none;stroke-opacity:1" /></g><g
       id="g4788"
       transform="translate(0.80929947)"><text
         xml:space="preserve"
         style="font-style:normal;font-weight:normal;font-size:11.23737717px;line-height:1.25;font-family:sans-serif;letter-spacing:0px;word-spacing:0px;fill:#ffffff;fill-opacity:1;stroke:none;stroke-width:1"
         x="43.312927"
         y="86.680595"
         id="text4740"><tspan
           sodipodi:role="line"
           id="tspan4738"
           x="43.312927"
           y="86.680595"
           style="font-style:normal;font-variant:normal;font-weight:bold;font-stretch:normal;font-family:sans-serif;-inkscape-font-specification:'sans-serif Bold';stroke-width:1">S</tspan></text>
<rect
         style="fill:none;fill-opacity:1;stroke:#00ffce;stroke-width:1;stroke-linecap:round;stroke-miterlimit:4;stroke-dasharray:none;stroke-opacity:1"
         id="rect4742"
         width="15.829988"
         height="15.829988"
         x="39.436367"
         y="74.669556"
         rx="5"
         ry="5" /></g><g
       id="g4793"><text
         xml:space="preserve"
         style="font-style:normal;font-weight:normal;font-size:11.23737717px;line-height:1.25;font-family:sans-serif;letter-spacing:0px;word-spacing:0px;fill:#ffffff;fill-opacity:1;stroke:none;stroke-width:1"
         x="62.668064"
         y="86.680595"
         id="text4746"><tspan
           sodipodi:role="line"
           id="tspan4744"
           x="62.668064"
           y="86.680595"
           style="font-style:normal;font-variant:normal;font-weight:bold;font-stretch:normal;font-family:sans-serif;-inkscape-font-specification:'sans-serif Bold';stroke-width:1">D</tspan></text>
<rect
         style="fill:none;fill-opacity:1;stroke:#00ffce;stroke-width:1;stroke-linecap:round;stroke-miterlimit:4;stroke-dasharray:none;stroke-opacity:1"
         id="rect4748"
         width="15.829988"
         height="15.829988"
         x="59.639244"
         y="74.669556"
         rx="5"
         ry="5" /></g><g
       id="g4798"><text
         xml:space="preserve"
         style="font-style:normal;font-weight:normal;font-size:11.23737717px;line-height:1.25;font-family:sans-serif;letter-spacing:0px;word-spacing:0px;fill:#ffffff;fill-opacity:1;stroke:none;stroke-width:1"
         x="34.441826"
         y="67.786293"
         id="text4752"><tspan
           sodipodi:role="line"
           id="tspan4750"
           x="34.441826"
           y="67.786293"
           style="font-style:normal;font-variant:normal;font-weight:bold;font-stretch:normal;font-family:sans-serif;-inkscape-font-specification:'sans-serif Bold';stroke-width:1">W</tspan></text>
<rect
         style="fill:none;fill-opacity:1;stroke:#00ffce;stroke-width:1;stroke-linecap:round;stroke-miterlimit:4;stroke-dasharray:none;stroke-opacity:1"
         id="rect4754"
         width="15.829988"
         height="15.829988"
         x="32.716167"
         y="55.775253"
         rx="5"
         ry="5" /></g></g></svg>